<svg width="40" height="40" viewBox="0 0 40 40" fill="none" xmlns="http://www.w3.org/2000/svg">
<path d="M3.75559 14.5323C3.73516 14.5327 3.71622 14.533 3.69893 14.5331L0 14.5331V25.4422H3.57435V19.0086H3.81404L5.80657 25.4422H8.49581L10.4883 19.0133H10.728V25.4422H14.3024V14.5331L10.7955 14.5331C10.7683 14.5331 10.7386 14.5327 10.7068 14.5323C10.2074 14.5254 9.17735 14.5113 8.75 15.9536C8.4844 16.85 7.99643 18.5253 7.28607 20.9794H7.01631C6.35392 18.6516 5.87121 16.9763 5.56818 15.9536C5.14009 14.5088 4.15761 14.5255 3.75559 14.5323Z" fill="white"/>
<path d="M19.4351 20.9668V14.5331H15.7861V25.4422H19.245C19.245 25.4422 20.2953 25.347 20.7658 24.2989L23.142 19.0086H23.4271V25.4422H27.0761V14.5331H23.6172C23.6172 14.5331 22.6144 14.6237 22.144 15.6765L19.7202 20.9668H19.4351Z" fill="white"/>
<path d="M35.8115 22.1926C37.5812 22.1926 39.1797 21.1596 39.6887 19.7172H28.5148V25.4422H31.9848V22.1926H35.8115Z" fill="white"/>
<path d="M28.3329 14.5331H35.9789C38.9208 14.5331 40.3429 17.0225 39.9298 19.041H32.7716C30.6064 19.041 28.5148 16.9619 28.3329 14.5331Z" fill="white"/>
</svg>
