<svg width="30" height="30" viewBox="0 0 30 30" fill="none" xmlns="http://www.w3.org/2000/svg">
<g clip-path="url(#clip0_328_143)">
<path d="M0.696929 30C0.528472 30 0.364593 29.9334 0.243057 29.8105C0.0828402 29.6484 0.0210422 29.4131 0.0812381 29.1932L2.03154 22.0713C0.817321 19.8756 0.177139 17.3918 0.178055 14.8705C0.181488 6.67076 6.8543 0 15.0533 0C19.0301 0.00160218 22.7668 1.55067 25.5754 4.36134C28.3836 7.17224 29.9294 10.9087 29.9283 14.8824C29.9246 23.0823 23.2518 29.7535 15.0533 29.7535C15.0533 29.7535 15.0471 29.7535 15.0469 29.7535C12.6521 29.7526 10.2779 29.1689 8.16396 28.0634L0.858748 29.9792C0.80519 29.9931 0.750716 30 0.696929 30Z" fill="#E5E5E5"/>
<path d="M0.697266 29.3619L2.71692 21.9867C1.47112 19.8281 0.815827 17.3795 0.816742 14.871C0.819946 7.02331 7.20622 0.638672 15.0537 0.638672C18.8618 0.640274 22.4363 2.12251 25.1243 4.81278C27.812 7.50305 29.2917 11.0791 29.2904 14.8824C29.2869 22.7298 22.8997 29.1154 15.0537 29.1154C15.0532 29.1154 15.0539 29.1154 15.0537 29.1154H15.0475C12.6648 29.1145 10.3238 28.5169 8.24443 27.3828L0.697266 29.3619ZM8.59393 24.8062L9.02629 25.0624C10.8427 26.1404 12.9253 26.7105 15.0491 26.7117H15.0537C21.5754 26.7117 26.8837 21.4044 26.8864 14.8815C26.8876 11.7204 25.658 8.74793 23.4239 6.51199C21.1895 4.27605 18.2189 3.04398 15.058 3.04261C8.53099 3.04261 3.22298 8.34922 3.22046 14.8719C3.21955 17.1071 3.84485 19.2838 5.02955 21.1675L5.31107 21.6152L4.11539 25.9804L8.59393 24.8062Z" fill="white"/>
<path d="M1.19189 28.8648L3.14174 21.7445C1.93874 19.6608 1.30634 17.2966 1.30702 14.8753C1.31 7.2993 7.47538 1.13574 15.0507 1.13574C18.7274 1.13734 22.1783 2.56831 24.7727 5.16544C27.3677 7.76256 28.7959 11.2148 28.7946 14.886C28.7914 22.4623 22.6257 28.6265 15.0514 28.6265C15.0507 28.6265 15.0516 28.6265 15.0514 28.6265H15.0452C12.7452 28.6256 10.4849 28.0484 8.47765 26.9543L1.19189 28.8648Z" fill="#3C393B"/>
<path d="M0.697266 29.3619L2.71692 21.9867C1.47112 19.8281 0.815827 17.3795 0.816742 14.871C0.819946 7.02331 7.20622 0.638672 15.0537 0.638672C18.8618 0.640274 22.4363 2.12251 25.1243 4.81278C27.812 7.50305 29.2917 11.0791 29.2904 14.8824C29.2869 22.7298 22.8997 29.1154 15.0537 29.1154C15.0532 29.1154 15.0539 29.1154 15.0537 29.1154H15.0475C12.6648 29.1145 10.3238 28.5169 8.24443 27.3828L0.697266 29.3619ZM8.59393 24.8062L9.02629 25.0624C10.8427 26.1404 12.9253 26.7105 15.0491 26.7117H15.0537C21.5754 26.7117 26.8837 21.4044 26.8864 14.8815C26.8876 11.7204 25.658 8.74793 23.4239 6.51199C21.1895 4.27605 18.2189 3.04398 15.058 3.04261C8.53099 3.04261 3.22298 8.34922 3.22046 14.8719C3.21955 17.1071 3.84485 19.2838 5.02955 21.1675L5.31107 21.6152L4.11539 25.9804L8.59393 24.8062Z" fill="white"/>
<path fill-rule="evenodd" clip-rule="evenodd" d="M11.4954 8.92088C11.229 8.32853 10.9484 8.31662 10.6948 8.30632C10.4874 8.2974 10.2501 8.29786 10.0132 8.29786C9.77604 8.29786 9.39061 8.38712 9.06468 8.74303C8.73852 9.09895 7.81934 9.95955 7.81934 11.7098C7.81934 13.4603 9.0942 15.1515 9.27205 15.3891C9.44989 15.6265 11.733 19.333 15.3486 20.7589C18.3536 21.9441 18.9649 21.7083 19.6173 21.6491C20.2696 21.5898 21.7218 20.7885 22.0182 19.9578C22.3148 19.1272 22.3148 18.4154 22.2258 18.2664C22.1368 18.1183 21.8997 18.0293 21.544 17.8514C21.1883 17.6736 19.4394 16.8128 19.1133 16.6942C18.7871 16.5754 18.55 16.5164 18.3129 16.8725C18.0755 17.2282 17.3944 18.0293 17.1868 18.2664C16.9792 18.5042 16.7716 18.534 16.4159 18.3559C16.0602 18.1776 14.9144 17.8022 13.5553 16.5903C12.4979 15.6475 11.7838 14.483 11.5762 14.1268C11.3688 13.7711 11.5728 13.5954 11.7325 13.401C12.0202 13.0511 12.5029 12.4219 12.6215 12.1847C12.7401 11.9472 12.6808 11.7396 12.592 11.5615C12.5029 11.3837 11.8115 9.62446 11.4954 8.92088Z" fill="white"/>
</g>
<defs>
<clipPath id="clip0_328_143">
<rect width="30" height="30" fill="white"/>
</clipPath>
</defs>
</svg>
